<svg xmlns="http://www.w3.org/2000/svg"><symbol id="sprite-chevron-left" viewBox="0 0 640 640"><title>chevron-left</title><path d="M444.512 557.376c8.576 8.704 8.576 22.688 0 31.328s-22.432 8.672-31.008 0l-250.56-253.056c-8.576-8.64-8.576-22.624 0-31.328l250.56-253.056a21.79 21.79 0 0 1 31.008 0c8.576 8.672 8.576 22.688 0 31.328L216 320l228.512 237.376z"/></symbol><symbol id="sprite-chevron-right" viewBox="0 0 640 640"><title>chevron-right</title><path d="M424 320L195.488 82.56c-8.576-8.64-8.576-22.624 0-31.328a21.79 21.79 0 0 1 31.008 0l250.56 253.056c8.576 8.672 8.576 22.688 0 31.328l-250.56 253.056c-8.576 8.672-22.432 8.64-31.008 0-8.576-8.608-8.576-22.624 0-31.328L424 320z"/></symbol><symbol id="sprite-dribbble" viewBox="0 0 512 512"><title/><path d="M256 512C114.8 512 0 397.2 0 256S114.8 0 256 0s256 114.8 256 256-114.8 256-256 256zm215.9-221c-7.5-2.4-67.7-20.3-136.2-9.3 28.6 78.6 40.2 142.6 42.5 155.9 49-33.2 84-85.7 93.7-146.6zM341.4 457.6c-3.3-19.2-15.9-86-46.6-165.8-.5.2-1 .3-1.4.5-123.4 43-167.7 128.5-171.6 136.5C158.9 457.7 205.5 475 256 475c30.3 0 59.2-6.2 85.4-17.4zM93.5 402.5c5-8.5 65-107.8 177.7-144.3 2.8-.9 5.7-1.8 8.6-2.6-5.5-12.4-11.5-24.9-17.7-37.1C153 251.2 47 249.8 37.4 249.7c-.1 2.2-.1 4.4-.1 6.7 0 56.1 21.3 107.4 56.2 146.1zM42 211.5c9.8.1 99.9.5 202.2-26.6-36.2-64.4-75.3-118.6-81.1-126.5-61.2 28.9-107 85.3-121.1 153.1zM204.8 43.7c6 8.1 45.8 62.2 81.6 128 77.8-29.1 110.7-73.4 114.6-79-38.6-34.3-89.4-55.1-145-55.1-17.6.1-34.8 2.2-51.2 6.1zm220.5 74.4c-4.6 6.2-41.3 53.2-122.1 86.2 5.1 10.4 10 21 14.5 31.7 1.6 3.8 3.2 7.5 4.7 11.3 72.8-9.1 145.1 5.5 152.3 7-.5-51.6-19-99-49.4-136.2z"/></symbol><symbol id="sprite-facebook" viewBox="0 0 512 512"><title/><path d="M304 96h80V0h-80c-61.757 0-112 50.243-112 112v48h-64v96h64v256h96V256h80l16-96h-96v-48c0-8.673 7.327-16 16-16z"/></symbol><symbol id="sprite-google-plus" viewBox="0 0 512 512"><title/><path d="M162.9 228.7v55.9h92.4c-3.7 24-27.9 70.3-92.4 70.3-55.6 0-101-46.1-101-102.9s45.4-102.9 101-102.9c31.7 0 52.8 13.5 64.9 25.1l44.2-42.6C243.6 105.1 206.8 89 162.9 89 72.8 89.1 0 161.9 0 252s72.8 162.9 162.9 162.9c94 0 156.4-66.1 156.4-159.2 0-10.7-1.2-18.9-2.6-27H162.9zM512 224h-48v-48h-48v48h-48v48h48v48h48v-48h48z"/></symbol><symbol id="sprite-instagram" viewBox="0 0 512 512"><title/><path d="M256 46.1c68.4 0 76.5.3 103.4 1.5 25 1.1 38.5 5.3 47.5 8.8 11.9 4.6 20.5 10.2 29.4 19.1 9 9 14.5 17.5 19.2 29.4 3.5 9 7.7 22.6 8.8 47.5 1.2 27 1.5 35.1 1.5 103.4s-.3 76.5-1.5 103.4c-1.1 25-5.3 38.5-8.8 47.5-4.6 11.9-10.2 20.5-19.1 29.4-9 9-17.5 14.5-29.4 19.2-9 3.5-22.6 7.7-47.5 8.8-27 1.2-35.1 1.5-103.4 1.5s-76.5-.3-103.4-1.5c-25-1.1-38.5-5.3-47.5-8.8-11.9-4.6-20.5-10.2-29.4-19.1-9-9-14.5-17.5-19.2-29.4-3.5-9-7.7-22.6-8.8-47.5-1.2-27-1.5-35.1-1.5-103.4s.3-76.5 1.5-103.4c1.1-25 5.3-38.5 8.8-47.5 4.6-11.9 10.2-20.5 19.1-29.4 9-9 17.5-14.5 29.4-19.2 9-3.5 22.6-7.7 47.5-8.8 26.9-1.2 35-1.5 103.4-1.5zM256 0c-69.5 0-78.2.3-105.5 1.5-27.2 1.2-45.9 5.6-62.1 11.9C71.5 20 57.2 28.7 43 43 28.7 57.2 20 71.5 13.4 88.3c-6.3 16.3-10.7 34.9-11.9 62.1C.3 177.8 0 186.5 0 256s.3 78.2 1.5 105.5c1.2 27.2 5.6 45.9 11.9 62.1C20 440.5 28.7 454.8 43 469c14.2 14.2 28.5 23 45.3 29.5 16.3 6.3 34.9 10.7 62.1 11.9 27.3 1.2 36 1.5 105.5 1.5s78.2-.3 105.5-1.5c27.2-1.2 45.9-5.6 62.1-11.9 16.8-6.5 31.1-15.3 45.3-29.5s23-28.5 29.5-45.3c6.3-16.3 10.7-34.9 11.9-62.1 1.2-27.3 1.5-36 1.5-105.5s-.3-78.2-1.5-105.5c-1.2-27.2-5.6-45.9-11.9-62.1-6.3-17-15-31.3-29.3-45.5-14.2-14.2-28.5-23-45.3-29.5-16.3-6.3-34.9-10.7-62.1-11.9C334.2.3 325.5 0 256 0z"/><path d="M256 124.5c-72.6 0-131.5 58.9-131.5 131.5S183.4 387.5 256 387.5 387.5 328.6 387.5 256 328.6 124.5 256 124.5zm0 216.8c-47.1 0-85.3-38.2-85.3-85.3s38.2-85.3 85.3-85.3c47.1 0 85.3 38.2 85.3 85.3s-38.2 85.3-85.3 85.3zm167.4-222c0 16.955-13.745 30.7-30.7 30.7S362 136.255 362 119.3s13.745-30.7 30.7-30.7 30.7 13.745 30.7 30.7z"/></symbol><symbol id="sprite-location" viewBox="0 0 1024 1024"><title/><path d="M512 0C300.256 0 128 172.608 128 384.704c0 317.664 358.432 622.688 373.696 635.52A15.896 15.896 0 0 0 512 1024a15.95 15.95 0 0 0 10.176-3.648C537.44 1007.744 896 707.968 896 384.704 896 172.608 723.744 0 512 0zm.064 986.816C453.152 934.176 160 658.528 160 384.704 160 190.208 317.92 32 512 32s352 158.208 352 352.704c0 278.464-292.864 550.176-351.936 602.112zM512 192c-105.888 0-192 86.112-192 192s86.112 192 192 192 192-86.112 192-192-86.112-192-192-192zm0 352c-88.224 0-160-71.776-160-160s71.776-160 160-160 160 71.776 160 160-71.776 160-160 160z"/></symbol><symbol id="sprite-paperplane" viewBox="0 0 1024 1024"><title/><path d="M1009.376 5.12A32.05 32.05 0 0 0 992 0c-6.176 0-12.384 1.76-17.76 5.376l-960 640A31.849 31.849 0 0 0 .192 675.328c1.216 11.808 8.896 22.016 19.936 26.368l250.368 100.192 117.728 206.016c5.632 9.888 16.096 16 27.424 16.128H416c11.232 0 21.664-5.952 27.424-15.552l66.464-110.816 310.24 124.064c3.808 1.536 7.808 2.272 11.872 2.272 5.44 0 10.816-1.376 15.68-4.128 8.448-4.736 14.24-13.056 15.872-22.624l160-960a32.072 32.072 0 0 0-14.176-32.128zM100.352 664.864l741.6-494.432-539.2 577.184c-2.848-1.696-5.376-3.936-8.512-5.184l-193.888-77.568zm225.696 105.248c-.064-.128-.16-.192-.224-.32L932 120.992 415.232 926.176l-89.184-156.064zm480.896 177.376L533.632 838.176c-6.496-2.56-13.248-3.424-19.936-3.808L934.56 181.952 806.944 947.488z"/></symbol><symbol id="sprite-phone" viewBox="0 0 1024 1024"><title/><path d="M200.992 1023.999c42.605 0 94.062-10.677 150.65-32.031 124.061-46.772 259.04-139.215 380.07-260.245 121.064-121.064 213.507-256.077 260.314-380.139 42.536-112.798 42.639-205.379.241-247.742-6.096-6.096-12.296-12.64-18.702-19.391C934.886 43.775 891.179-1.999 833.248.068 793.33 1.721 754.651 26.52 715.042 75.806c-117.034 145.553-64.269 197.422-3.203 257.559l10.78 10.677c9.988 9.988 28.863 56.244-146.724 231.83-57.312 57.312-106.185 99.262-145.243 124.646-24.592 15.981-68.574 40.16-86.622 22.112l-10.849-10.953c-60.067-60.928-111.937-113.521-257.386 3.41C26.508 754.695 1.744 793.34.091 833.327c-2.377 57.897 43.742 101.708 84.452 140.352 6.716 6.406 13.26 12.606 19.356 18.668 21.044 21.079 54.694 31.652 97.092 31.652zM837.38 34.439c41.158 0 78.321 39.126 111.214 73.741 6.613 6.957 13.019 13.708 19.322 20.011 31.583 31.549 28.38 114.451-8.128 211.268-45.119 119.583-134.772 250.257-252.461 367.947-117.654 117.62-248.259 207.273-367.878 252.358-96.817 36.578-179.719 39.677-211.234 8.163-6.303-6.303-13.054-12.709-20.011-19.288-35.372-33.616-75.497-71.709-73.741-113.969 1.205-29.035 22.353-60.274 62.857-92.822 121.202-97.471 155.093-63.064 211.303-6.062l11.021 11.125c26.865 26.899 70.503 20.941 129.744-17.566 41.09-26.727 91.857-70.193 150.822-129.193 145.725-145.69 192.325-234.861 146.724-280.566l-10.987-10.849c-57.14-56.21-91.616-90.135 5.89-211.406 32.617-40.47 63.821-61.617 92.856-62.857.895-.034 1.791-.034 2.686-.034z"/></symbol><symbol id="sprite-play-circle" viewBox="0 0 1024 1024"><title>play-circle</title><path d="M1024 512c0-69.26-13.777-135.447-38.772-195.817-25.972-62.697-64-119.063-111.15-166.214S770.56 64.744 707.864 38.82C647.448 13.777 581.26 0 512 0S376.554 13.777 316.184 38.772c-62.697 25.972-119.063 64-166.214 111.197S64.745 253.486 38.773 316.183C13.778 376.553.001 442.74.001 512s13.777 135.447 38.772 195.817c25.972 62.697 64 119.063 111.15 166.214s103.517 85.225 166.214 111.15C376.553 1010.223 442.74 1024 512 1024s135.447-13.777 195.817-38.772c62.697-25.972 119.063-64 166.214-111.15s85.225-103.517 111.15-166.214C1010.223 647.448 1024 581.26 1024 512zm-93.1 0c0 56.832-11.31 110.918-31.697 160.2-21.225 51.246-52.317 97.373-90.996 136.006s-84.806 69.77-136.006 90.996C622.92 919.6 568.833 930.91 512 930.91s-110.918-11.31-160.2-31.697c-51.246-21.225-97.373-52.317-136.006-90.996-38.68-38.68-69.77-84.806-90.996-136.006-20.387-49.292-31.697-103.378-31.697-160.2s11.31-110.918 31.697-160.2c21.225-51.246 52.317-97.373 90.996-136.006s84.806-69.77 136.006-90.996C401.083 104.4 455.17 93.09 512 93.09s110.918 11.31 160.2 31.697c51.246 21.225 97.373 52.317 136.006 90.996 38.68 38.68 69.77 84.806 90.996 136.006C919.6 401.082 930.9 455.168 930.9 512zM444.744 287.093c-7.26-4.887-16.198-7.82-25.833-7.82-25.693 0-46.546 20.853-46.546 46.546v372.363c-.047 8.75 2.467 17.827 7.82 25.833 14.243 21.41 43.148 27.182 64.56 12.893l279.272-186.182c4.795-3.165 9.31-7.54 12.893-12.893 14.243-21.41 8.47-50.27-12.893-64.56zm20.712 125.718L614.26 512l-148.805 99.19z"/></symbol><symbol id="sprite-play" viewBox="0 0 1024 1024"><title>play</title><path d="M236.416 92.1c-6.528-4.267-14.507-6.784-23.083-6.784-23.552 0-42.667 19.115-42.667 42.667v768c-.043 7.765 2.133 15.872 6.784 23.083 12.757 19.84 39.125 25.557 58.965 12.8l597.333-384c4.864-3.072 9.344-7.424 12.8-12.8 12.757-19.84 6.997-46.208-12.8-58.965zM256 206.158l475.776 305.835L256 817.828z"/></symbol><symbol id="sprite-twitter" viewBox="0 0 512 512"><title/><path d="M512 113.2c-18.8 8.4-39.1 14-60.3 16.5 21.7-13 38.3-33.6 46.2-58.1-20.3 12-42.8 20.8-66.7 25.5C412 76.7 384.7 64 354.5 64c-58 0-105 47-105 105 0 8.2.9 16.2 2.7 23.9-87.3-4.4-164.7-46.2-216.5-109.8-9 15.5-14.2 33.6-14.2 52.8 0 36.4 18.5 68.6 46.7 87.4-17.2-.5-33.4-5.3-47.6-13.1v1.3c0 50.9 36.2 93.4 84.3 103-8.8 2.4-18.1 3.7-27.7 3.7-6.8 0-13.3-.7-19.8-1.9 13.4 41.7 52.2 72.1 98.1 73-36 28.2-81.2 45-130.5 45-8.5 0-16.8-.5-25.1-1.5C46.5 462.7 101.7 480 161 480c193.2 0 298.9-160.1 298.9-298.9 0-4.6-.1-9.1-.3-13.6 20.5-14.7 38.3-33.2 52.4-54.3z"/></symbol><symbol id="sprite-youtube" viewBox="0 0 512 512"><title/><path d="M506.9 153.6s-5-35.3-20.4-50.8c-19.5-20.4-41.3-20.5-51.3-21.7-71.6-5.2-179.1-5.2-179.1-5.2h-.2s-107.5 0-179.1 5.2c-10 1.2-31.8 1.3-51.3 21.7-15.4 15.5-20.3 50.8-20.3 50.8S.1 195 .1 236.5v38.8c0 41.4 5.1 82.9 5.1 82.9s5 35.3 20.3 50.8C45 429.4 70.6 428.7 82 430.9c41 3.9 174.1 5.1 174.1 5.1s107.6-.2 179.2-5.3c10-1.2 31.8-1.3 51.3-21.7 15.4-15.5 20.4-50.8 20.4-50.8s5.1-41.4 5.1-82.9v-38.8c-.1-41.4-5.2-82.9-5.2-82.9zM203.1 322.4V178.5l138.3 72.2-138.3 71.7z"/></symbol></svg>