<svg xmlns="http://www.w3.org/2000/svg"><symbol id="sprite-chevron-left" viewBox="0 0 640 640"><title/><path d="M444.512 557.376c8.576 8.704 8.576 22.688 0 31.328s-22.432 8.672-31.008 0l-250.56-253.056c-8.576-8.64-8.576-22.624 0-31.328l250.56-253.056a21.787 21.787 0 0 1 31.008 0c8.576 8.672 8.576 22.688 0 31.328L216 320l228.512 237.376z"/></symbol><symbol id="sprite-chevron-right" viewBox="0 0 640 640"><title/><path d="M424 320L195.488 82.56c-8.576-8.64-8.576-22.624 0-31.328a21.787 21.787 0 0 1 31.008 0l250.56 253.056c8.576 8.672 8.576 22.688 0 31.328l-250.56 253.056c-8.576 8.672-22.432 8.64-31.008 0-8.576-8.608-8.576-22.624 0-31.328L424 320z"/></symbol><symbol id="sprite-loader" viewBox="0 0 100 100" preserveAspectRatio="xMidYMid"><title>loader</title><path d="M11.136 61.084a40 40 0 0 0 76.901-22.051 43 40 74 0 1-76.9 22.05"><animateTransform attributeName="transform" type="rotate" calcMode="linear" values="0 50 51.5;360 50 51.5" keyTimes="0;1" dur="1.5s" begin="0s" repeatCount="indefinite"/></path></symbol><symbol id="sprite-play-circle" viewBox="0 0 1024 1024"><title/><path d="M1024 512c0-69.26-13.777-135.447-38.772-195.817-25.972-62.697-64-119.063-111.15-166.214S770.561 64.744 707.864 38.819C647.448 13.777 581.261 0 512.001 0S376.554 13.777 316.184 38.772c-62.697 25.972-119.063 64-166.214 111.197S64.745 253.486 38.773 316.183C13.778 376.553.001 442.74.001 512s13.777 135.447 38.772 195.817c25.972 62.697 64 119.063 111.15 166.214s103.517 85.225 166.214 111.15C376.553 1010.223 442.74 1024 512 1024s135.447-13.777 195.817-38.772c62.697-25.972 119.063-64 166.214-111.15s85.225-103.517 111.15-166.214C1010.223 647.448 1024 581.261 1024 512.001zm-93.09 0c0 56.832-11.311 110.918-31.697 160.21-21.225 51.246-52.317 97.373-90.996 136.006s-84.806 69.771-136.006 90.996c-49.292 20.387-103.378 31.697-160.21 31.697s-110.918-11.311-160.21-31.697c-51.246-21.225-97.373-52.317-136.006-90.996-38.679-38.679-69.771-84.806-90.996-136.006C104.402 622.918 93.092 568.832 93.092 512s11.311-110.918 31.697-160.21c21.225-51.246 52.317-97.373 90.996-136.006s84.806-69.771 136.006-90.996c49.292-20.387 103.378-31.697 160.21-31.697s110.918 11.311 160.21 31.697c51.246 21.225 97.373 52.317 136.006 90.996 38.679 38.679 69.771 84.806 90.996 136.006C919.6 401.082 930.91 455.168 930.91 512zM444.744 287.093c-7.261-4.887-16.198-7.82-25.833-7.82-25.693 0-46.546 20.853-46.546 46.546v372.363c-.047 8.75 2.467 17.827 7.82 25.833 14.243 21.411 43.148 27.182 64.559 12.893l279.272-186.182c4.795-3.165 9.309-7.54 12.893-12.893 14.243-21.411 8.471-50.269-12.893-64.559zm20.712 125.718L614.261 512l-148.805 99.189z"/></symbol><symbol id="sprite-play" viewBox="0 0 1024 1024"><title/><path d="M236.416 92.11c-6.528-4.267-14.507-6.784-23.083-6.784-23.552 0-42.667 19.115-42.667 42.667v768c-.043 7.765 2.133 15.872 6.784 23.083 12.757 19.84 39.125 25.557 58.965 12.8l597.333-384c4.864-3.072 9.344-7.424 12.8-12.8 12.757-19.84 6.997-46.208-12.8-58.965zM256 206.158l475.776 305.835L256 817.828z"/></symbol></svg>