<!-- Generated by IcoMoon.io -->
<svg version="1.1" xmlns="http://www.w3.org/2000/svg" width="1024" height="1024" viewBox="0 0 1024 1024">
<title></title>
<g id="icomoon-ignore">
</g>
<path fill="#000" d="M200.992 1023.999c42.605 0 94.062-10.677 150.65-32.031 124.061-46.772 259.040-139.215 380.070-260.245 121.064-121.064 213.507-256.077 260.314-380.139 42.536-112.798 42.639-205.379 0.241-247.742-6.096-6.096-12.296-12.64-18.702-19.391-38.679-40.676-82.386-86.45-140.317-84.383-39.918 1.653-78.597 26.452-118.206 75.738-117.034 145.553-64.269 197.422-3.203 257.559l10.78 10.677c9.988 9.988 28.863 56.244-146.724 231.83-57.312 57.312-106.185 99.262-145.243 124.646-24.592 15.981-68.574 40.16-86.622 22.112l-10.849-10.953c-60.067-60.928-111.937-113.521-257.386 3.41-49.287 39.608-74.051 78.253-75.704 118.24-2.377 57.897 43.742 101.708 84.452 140.352 6.716 6.406 13.26 12.606 19.356 18.668 21.044 21.079 54.694 31.652 97.092 31.652zM837.38 34.439c41.158 0 78.321 39.126 111.214 73.741 6.613 6.957 13.019 13.708 19.322 20.011 31.583 31.549 28.38 114.451-8.128 211.268-45.119 119.583-134.772 250.257-252.461 367.947-117.654 117.62-248.259 207.273-367.878 252.358-96.817 36.578-179.719 39.677-211.234 8.163-6.303-6.303-13.054-12.709-20.011-19.288-35.372-33.616-75.497-71.709-73.741-113.969 1.205-29.035 22.353-60.274 62.857-92.822 121.202-97.471 155.093-63.064 211.303-6.062l11.021 11.125c26.865 26.899 70.503 20.941 129.744-17.566 41.090-26.727 91.857-70.193 150.822-129.193 145.725-145.69 192.325-234.861 146.724-280.566l-10.987-10.849c-57.14-56.21-91.616-90.135 5.89-211.406 32.617-40.47 63.821-61.617 92.856-62.857 0.895-0.034 1.791-0.034 2.686-0.034z"></path>
</svg>
