<!-- Generated by IcoMoon.io -->
<svg version="1.1" xmlns="http://www.w3.org/2000/svg" width="1024" height="1024" viewBox="0 0 1024 1024">
<title></title>
<g id="icomoon-ignore">
</g>
<path fill="#000" d="M1024 512c0-69.26-13.777-135.447-38.772-195.817-25.972-62.697-64-119.063-111.15-166.214s-103.517-85.225-166.214-111.15c-60.416-25.042-126.603-38.819-195.863-38.819s-135.447 13.777-195.817 38.772c-62.697 25.972-119.063 64-166.214 111.197s-85.225 103.517-111.197 166.214c-24.995 60.37-38.772 126.557-38.772 195.817s13.777 135.447 38.772 195.817c25.972 62.697 64 119.063 111.15 166.214s103.517 85.225 166.214 111.15c60.416 25.042 126.603 38.819 195.863 38.819s135.447-13.777 195.817-38.772c62.697-25.972 119.063-64 166.214-111.15s85.225-103.517 111.15-166.214c25.042-60.416 38.819-126.603 38.819-195.863zM930.91 512c0 56.832-11.311 110.918-31.697 160.21-21.225 51.246-52.317 97.373-90.996 136.006s-84.806 69.771-136.006 90.996c-49.292 20.387-103.378 31.697-160.21 31.697s-110.918-11.311-160.21-31.697c-51.246-21.225-97.373-52.317-136.006-90.996-38.679-38.679-69.771-84.806-90.996-136.006-20.387-49.292-31.697-103.378-31.697-160.21s11.311-110.918 31.697-160.21c21.225-51.246 52.317-97.373 90.996-136.006s84.806-69.771 136.006-90.996c49.292-20.387 103.378-31.697 160.21-31.697s110.918 11.311 160.21 31.697c51.246 21.225 97.373 52.317 136.006 90.996 38.679 38.679 69.771 84.806 90.996 136.006 20.387 49.292 31.697 103.378 31.697 160.21zM444.744 287.093c-7.261-4.887-16.198-7.82-25.833-7.82-25.693 0-46.546 20.853-46.546 46.546v372.363c-0.047 8.75 2.467 17.827 7.82 25.833 14.243 21.411 43.148 27.182 64.559 12.893l279.272-186.182c4.795-3.165 9.309-7.54 12.893-12.893 14.243-21.411 8.471-50.269-12.893-64.559zM465.456 412.811l148.805 99.189-148.805 99.189z"></path>
</svg>
