<svg xmlns="http://www.w3.org/2000/svg" width="1024" height="1024"><path d="M1024 512c0-69.26-13.777-135.447-38.772-195.817-25.972-62.697-64-119.063-111.15-166.214S770.56 64.744 707.864 38.82C647.448 13.777 581.26 0 512 0S376.554 13.777 316.184 38.772c-62.697 25.972-119.063 64-166.214 111.197S64.745 253.486 38.773 316.183C13.778 376.553.001 442.74.001 512s13.777 135.447 38.772 195.817c25.972 62.697 64 119.063 111.15 166.214s103.517 85.225 166.214 111.15C376.553 1010.223 442.74 1024 512 1024s135.447-13.777 195.817-38.772c62.697-25.972 119.063-64 166.214-111.15s85.225-103.517 111.15-166.214C1010.223 647.448 1024 581.26 1024 512zm-93.1 0c0 56.832-11.31 110.918-31.697 160.2-21.225 51.246-52.317 97.373-90.996 136.006s-84.806 69.77-136.006 90.996C622.92 919.6 568.833 930.91 512 930.91s-110.918-11.31-160.2-31.697c-51.246-21.225-97.373-52.317-136.006-90.996-38.68-38.68-69.77-84.806-90.996-136.006-20.387-49.292-31.697-103.378-31.697-160.2s11.31-110.918 31.697-160.2c21.225-51.246 52.317-97.373 90.996-136.006s84.806-69.77 136.006-90.996C401.083 104.4 455.17 93.09 512 93.09s110.918 11.31 160.2 31.697c51.246 21.225 97.373 52.317 136.006 90.996 38.68 38.68 69.77 84.806 90.996 136.006C919.6 401.082 930.9 455.168 930.9 512zM444.744 287.093c-7.26-4.887-16.198-7.82-25.833-7.82-25.693 0-46.546 20.853-46.546 46.546v372.363c-.047 8.75 2.467 17.827 7.82 25.833 14.243 21.41 43.148 27.182 64.56 12.893l279.272-186.182c4.795-3.165 9.31-7.54 12.893-12.893 14.243-21.41 8.47-50.27-12.893-64.56zm20.712 125.718L614.26 512l-148.805 99.19z"/></svg>